<svg xmlns="http://www.w3.org/2000/svg" width="18.815" height="11.916" viewBox="0 0 18.815 11.916"><defs><style>.a{fill:#242629;}</style></defs><path class="a" d="M8.093,99.513a2.025,2.025,0,0,0,1.781-2.22,2.982,2.982,0,0,0-3.3-3.107H.5v11.669H6.572s3.707.117,3.707-3.444C10.279,102.411,10.44,99.513,8.093,99.513ZM6.135,96.26h.437s.825,0,.825,1.214-.485,1.39-1.036,1.39H3.175v-2.6Zm.265,7.521H3.175v-3.118h3.4s1.23-.016,1.23,1.6c0,1.365-.919,1.506-1.4,1.516Zm8.822-6.626c-4.487,0-4.483,4.484-4.483,4.484a4.14,4.14,0,0,0,4.483,4.461s3.993.228,3.993-3.1H17.162s.068,1.254-1.871,1.254a1.9,1.9,0,0,1-2.054-2.03h6.047S19.945,97.155,15.222,97.155Zm-2.008,3.508a2.087,2.087,0,0,1,2.053-1.8,1.737,1.737,0,0,1,1.78,1.8Zm4.312-4.352H12.712V94.873h4.814Z" transform="translate(-0.5 -94.186)"/></svg>