<svg xmlns="http://www.w3.org/2000/svg" width="17.245" height="17.246" viewBox="0 0 17.245 17.246"><defs><style>.a{fill:#242629;}</style></defs><path class="a" d="M5.749,8.623A2.874,2.874,0,1,1,8.623,11.5,2.874,2.874,0,0,1,5.749,8.623m-1.554,0A4.428,4.428,0,1,0,8.623,4.2,4.428,4.428,0,0,0,4.2,8.623m8-4.6a1.035,1.035,0,1,0,1.035-1.034A1.035,1.035,0,0,0,12.191,4.02M5.139,15.642a4.763,4.763,0,0,1-1.6-.3,2.682,2.682,0,0,1-.992-.645,2.665,2.665,0,0,1-.645-.991,4.763,4.763,0,0,1-.3-1.6c-.042-.909-.05-1.182-.05-3.485s.009-2.575.05-3.485a4.785,4.785,0,0,1,.3-1.6,2.682,2.682,0,0,1,.645-.992A2.662,2.662,0,0,1,3.538,1.9a4.763,4.763,0,0,1,1.6-.3c.909-.042,1.182-.05,3.484-.05s2.575.009,3.485.05a4.785,4.785,0,0,1,1.6.3,2.673,2.673,0,0,1,.992.645,2.676,2.676,0,0,1,.645.992,4.763,4.763,0,0,1,.3,1.6c.042.91.05,1.182.05,3.485s-.008,2.575-.05,3.485a4.781,4.781,0,0,1-.3,1.6,2.855,2.855,0,0,1-1.637,1.636,4.763,4.763,0,0,1-1.6.3c-.909.042-1.182.05-3.485.05s-2.575-.008-3.484-.05M5.068.052a6.325,6.325,0,0,0-2.093.4,4.231,4.231,0,0,0-1.527.995A4.22,4.22,0,0,0,.453,2.975a6.325,6.325,0,0,0-.4,2.093C.01,5.987,0,6.281,0,8.623s.01,2.636.052,3.555a6.325,6.325,0,0,0,.4,2.093A4.216,4.216,0,0,0,1.447,15.8a4.229,4.229,0,0,0,1.527.995,6.329,6.329,0,0,0,2.093.4c.92.042,1.213.052,3.555.052s2.636-.01,3.555-.052a6.325,6.325,0,0,0,2.093-.4,4.409,4.409,0,0,0,2.522-2.522,6.307,6.307,0,0,0,.4-2.093c.042-.92.052-1.213.052-3.555s-.01-2.636-.052-3.555a6.325,6.325,0,0,0-.4-2.093A4.24,4.24,0,0,0,15.8,1.447,4.229,4.229,0,0,0,14.272.453a6.315,6.315,0,0,0-2.093-.4C11.259.01,10.965,0,8.624,0S5.988.01,5.068.052"/></svg>