<svg xmlns="http://www.w3.org/2000/svg" width="14.357" height="13.72" viewBox="0 0 14.357 13.72"><defs><style>.a{fill:#7a5af0;}</style></defs><path class="a" d="M0,6.594A1.492,1.492,0,0,1,.485,5.45,1.779,1.779,0,0,1,1.746,5a1.726,1.726,0,0,1,1.233.443,1.563,1.563,0,0,1,.485,1.192,1.459,1.459,0,0,1-.471,1.109A1.783,1.783,0,0,1,1.718,8.2H1.7A1.7,1.7,0,0,1,.471,7.744,1.536,1.536,0,0,1,0,6.594ZM.18,18.72V9.462H3.257V18.72Zm4.781,0H8.038V13.551a1.8,1.8,0,0,1,.7-1.545,1.506,1.506,0,0,1,.991-.326q1.552,0,1.552,2.093V18.72h3.077V13.412a4.46,4.46,0,0,0-.97-3.111,3.309,3.309,0,0,0-2.564-1.06,3.145,3.145,0,0,0-2.786,1.538v.028H8.024l.014-.028V9.462H4.961q.028.443.028,2.758T4.961,18.72Z" transform="translate(0 -5)"/></svg>