<svg xmlns="http://www.w3.org/2000/svg" width="33.043" height="33.043" viewBox="0 0 33.043 33.043"><defs><style>.a{fill:#7a5af0;}</style></defs><path class="a" d="M27.991,30.1a.635.635,0,0,1-.3-.072l-6.777-3.521v7.067H35.065V26.508l-6.777,3.521a.635.635,0,0,1-.3.072Zm-7.074-5.044,7.074,3.675,7.074-3.675V22.414H20.918Zm13.238-12.4A16.525,16.525,0,1,0,44.512,27.995,16.492,16.492,0,0,0,34.156,12.66Zm2.2,21.556a.643.643,0,0,1-.643.643H20.275a.643.643,0,0,1-.643-.643V21.771a.643.643,0,0,1,.643-.643H35.708a.643.643,0,0,1,.643.643Z" transform="translate(-11.469 -11.473)"/></svg>