<svg xmlns="http://www.w3.org/2000/svg" width="32.957" height="32.957" viewBox="0 0 32.957 32.957"><defs><style>.a{fill:#7a5af0;}</style></defs><path class="a" d="M18.979,2.5A16.479,16.479,0,1,0,35.457,18.979,16.494,16.494,0,0,0,18.979,2.5Zm9.055,22.585a6.459,6.459,0,0,1-1.214,1.873c-1.977,1.977-7.285.209-11.657-4.163S9.022,13.15,11,11.138a6.989,6.989,0,0,1,1.873-1.214,1.353,1.353,0,0,1,1.6.416l2.186,2.775a1.358,1.358,0,0,1-.173,1.873c-.556.485-.936.832-1.041.936-.832.832.382,2.6,2.22,4.441s3.574,3.087,4.441,2.22c.1-.1.451-.485.936-1.041a1.355,1.355,0,0,1,1.873-.173l2.775,2.186a1.234,1.234,0,0,1,.348,1.529Z" transform="translate(-2.5 -2.5)"/></svg>